# xmcd CD database file
#
# Track frame offsets:
#	150
#	18809
#	38678
#	58666
#	79239
#	102879
#	121160
#	139662
#	161842
#	181147
#	196447
#	223251
#
# Disc length: 3172 seconds
#
# Revision: 1
# Processed by: cddbd v1.5PL3 Copyright (c) Steve Scherf et al.
# Submitted via: CDex 1.51
#
DISCID=a00c620c
DTITLE=MORNING MUSUME - BEST! MORNING MUSUME. TWO
DYEAR=2004
DGENRE=JPop
TTITLE0=Go Girl-Koi no Victory-
TTITLE1=Do it!Now
TTITLE2=Kokoni Iruzei!
TTITLE3=Ai Araba IT'S ALL RIGHT
TTITLE4=The Peace!
TTITLE5=Mr.Moonlight-Ai no Bigband-
TTITLE6=Syabondama
TTITLE7=Souda! We're ALIVE
TTITLE8=AS FOR ONE DAY
TTITLE9=Morning Musume no Hyokkori Hyoutanjima
TTITLE10=Dekkai Uchu ni Ai ga Aru
TTITLE11=YAH!Aishitai!
EXTD=YEAR: 2004
EXTT0=
EXTT1=
EXTT2=
EXTT3=
EXTT4=
EXTT5=
EXTT6=
EXTT7=
EXTT8=
EXTT9=
EXTT10=
EXTT11=
PLAYORDER=
